Patient4_TMGait_0pt3_02_right_29_EMG.mot
version=1
nRows=19
nColumns=33
inDegrees=no
endheader
time	1LAddLong	2LGlutMax	3LGlutMed	4LIliopsoas	5LSemiMemb	6LBicFemLong	7LRecFem	8LVastMed	9LVastLat	10LGasMed	11LTibAnt	12lTibPost	13LPeroneusLong	14LSol	15LExtDigLong	16LFlexDigLong	17RAddLong	18RGlutMax	19RGlutMed	20RIliopsoas	21RSemiMemb	22RBicFemLong	23RRecFem	24RVastMed	25RVastLat	26RGasMed	27RTibAnt	28RTibPost	29RPeroneusLong	30RSol	31RExtDigLong	32RFlexDigLong
57.875	-0.001984	0.099792	-0.16098	0.051422	0.026398	0.000153	0.055084	0.047455	0.20508	-0.046844	-0.000458	0.008545	-0.10071	0.017853	0.016937	-0.012207	0.045319	-0.030365	-0.066071	0.1004	0.020752	0.007629	0.016632	-0.014343	0.002747	-0.002289	-0.76721	-0.019073	0.068054	0.11597	-0.001984	0.001984
57.876	0.009918	0.079651	-0.15884	0.022278	0.020599	0.081482	0.02594	0.039063	0.20126	-0.033875	0.00351	0.013275	-0.1442	0.080109	0.021362	0.009766	0.032654	0.014954	-0.085449	-0.001068	0.005035	0.016022	0.072479	-0.02655	0.016479	0.004272	-0.38391	-0.024567	0.082397	0.044861	-0.003052	-0.00412
57.877	0.004272	0.091705	0.043182	-0.008392	0.01236	0.16907	0.032196	-0.003357	0.21179	-0.015869	0.012512	0.016327	-0.27161	0.16571	0.011749	0.024719	-0.003815	-0.053864	-0.098877	-0.018005	0.009155	0.012054	-0.022583	-0.058441	0.029602	0.006409	-0.37964	-0.02594	0.087738	0.026245	0.000153	0.000153
57.878	0.000763	0.079041	0.011902	-0.021973	0.004272	0.17899	0.015869	-0.059357	0.15533	0.000458	0.006561	0.011292	-0.10208	0.15091	-0.032959	0.019836	-0.037994	0.007935	0.005951	0.010986	0.011597	0.019989	-0.021057	-0.018616	0.024872	0.001831	-0.29282	-0.019989	0.031738	0.06012	-0.001373	0.000458
57.879	0.005798	0.058441	0.02121	-0.023804	0.003204	0.15411	0.002747	-0.089569	-0.021667	0.011597	-0.011444	0.008392	0.24689	0.067596	-0.001373	0.01297	-0.035553	0.031128	0.077515	-0.041504	0.009003	0.016632	0.019226	-0.045166	0.006561	-0.001831	-0.081177	-0.014343	-0.00824	0.090332	-0.004272	-0.01236
57.88	0.003204	0.068207	-0.055237	0.001984	0.010834	0.001221	0.028687	-0.074463	-0.10696	-0.028992	0.000458	0.009766	0.45914	0.072937	0.059662	0.010529	-0.024109	0.054626	0.11124	-0.085449	0.014801	0.044556	0.006866	0.029144	0.003967	-0.001526	0.19302	-0.013123	-0.049896	0.066223	0.007172	-0.010681
57.881	-0.001373	0.13947	-0.12116	0.013275	0.014343	-0.15488	0.046234	-0.05249	-0.14587	-0.063934	0.008545	0.004578	0.059357	0.02243	0.068512	0.010986	-0.005951	0.047302	0.14191	0.058289	0.008545	0.036316	-0.011597	-0.003357	0.003052	-0.008545	0.50034	-0.016632	-0.16144	0.034943	-0.001526	-0.01358
57.882	0.009003	0.010986	-0.22095	0.007477	0.011749	0.03418	0.10757	-0.027466	-0.04837	-0.042877	0.002441	-0.001068	0.23224	0.035858	-0.001373	0.007935	0.023804	-0.017242	0.21622	0.076752	0.001678	0.023193	0.059204	-0.023193	0.004578	0.003815	0.35431	-0.01709	-0.11597	-0.035095	0.002136	-0.011902
57.883	0.011139	-0.082703	-0.096283	0.005035	0.020294	0.13611	0.025024	-0.001526	-0.027771	-0.026245	0.027618	0.005341	-0.12512	0.12161	0.017548	-0.009308	0.017853	0.033722	0.60165	0.083923	-0.005188	0.032196	0.023956	-0.041046	0.014343	0.002136	-0.10819	-0.008698	0.014954	-0.060425	-0.001678	-0.018005
57.884	0.018921	-0.08255	0.090332	-0.009155	0.001526	0.11444	-0.035858	0.006409	0.000153	0.001984	0.030823	0.003204	0.18219	0.067444	-0.014801	-0.005798	0.044556	0.005188	0.51727	0.040894	-0.009766	0.043945	0.036774	-0.027924	-0.010223	-0.001526	-0.13367	-0.013428	0.035248	-0.008545	0.000305	-0.00885
57.885	0.014648	-0.076141	-0.005951	0.005188	-0.024261	0.030212	-0.097351	0.007019	0.084534	-0.005188	0.037079	0.009308	-0.041656	0.071869	-0.012817	0.001373	0.085754	-0.02121	0.12329	-0.017395	-0.013275	0.024414	0.097961	-0.044708	0.012207	-0.001221	0.29541	-0.013733	0.02655	0.07019	-0.002594	-0.009003
57.886	0.013275	-0.09201	-0.18326	0.001984	-0.037842	-0.069733	-0.052948	-0.011444	0.15228	-0.03418	0.022583	0.002594	-0.003357	0.050812	-0.034332	0.001373	0.1001	0.006409	0.080719	-0.12024	-0.02655	0.028381	0.018921	-0.066223	0.029907	-0.002441	0.45273	-0.003967	0.046082	0.065002	-0.001526	-0.007935
57.887	0.002289	-0.046844	-0.38544	0.003662	0.009613	-0.2063	-0.013885	-0.00946	0.087891	-0.020294	-0.009766	0.002594	-0.15106	0.001373	-0.070648	-0.006561	0.14206	-0.02594	0.54047	-0.050507	-0.035095	0.033875	0.00412	-0.06134	0.027008	0.007629	0.090637	-0.008392	0.15335	0.005341	-0.001373	-0.002289
57.888	-0.005341	0.062714	-0.34805	-0.000153	0.024872	-0.2301	-0.041504	0.004425	-0.016327	0.010071	0.033875	0.000763	-0.30868	-0.11551	-0.080872	0.000458	0.15533	-0.049591	0.31494	0.052643	-0.037537	0.019226	0.005951	-0.059509	0.016327	0.003815	-0.18112	-0.009003	0.24948	-0.059814	0.000305	-0.003357
57.889	0.002747	0.15442	0.012665	-0.002136	-0.006561	-0.16571	0.043945	0.020447	-0.056	-0.037079	-0.015106	0.001831	0.24719	-0.019836	-0.028381	0.022278	0.13397	-0.043335	0.082703	0.032043	-0.045471	0.017395	0.003967	-0.055847	0.009155	0.005188	-0.37048	-0.013428	-0.0177	-0.084229	0.00061	0.000305
57.89	-0.009308	0.16113	0.21194	0.031586	-0.039368	-0.11704	0.028076	0.041351	-0.093842	-0.054321	-0.03479	0.002594	0.33157	0.083008	-0.033569	0.016022	0.089874	0.032654	0.073242	0.012207	-0.037689	0.037079	0.038147	-0.075531	0.022278	0.019073	-0.3302	-0.010071	-0.29144	-0.072937	-0.005493	-0.000916
57.891	0.013275	0.15076	0.35049	0.023499	0.005188	-0.13016	-0.029907	0.044403	-0.045624	-0.045319	-0.006866	0.007019	0.001678	0.049438	-0.034027	0.004425	0.03952	-0.023956	0.14481	0.028687	-0.031433	0.033264	0.050659	-0.049591	0.014496	0.006409	0.11093	-0.006561	-0.018616	-0.017548	-0.001526	-0.000458
57.892	0.016785	0.11017	0.32913	-0.012207	0.032349	-0.07431	-0.15503	0.014343	-0.071869	-0.032501	-0.000916	0.004883	-0.35004	0.010681	0.017548	-0.014801	-0.005341	0.0177	0.14633	0.028992	-0.015106	0.044861	0.036774	-0.021057	0.024261	-0.007782	0.24918	-0.007019	0.041351	0.040741	-0.002136	-0.009155
57.893	0.03006	0.054321	0.30533	-0.014801	0.001221	-0.00885	-0.18158	-0.009918	-0.14984	-0.044861	0.022125	-0.002441	-0.24536	0.021973	0.049133	0.011444	-0.042114	0.035706	0.15839	-0.019989	-0.008392	0.036774	0.009918	-0.020905	0.022278	-0.008698	0.066681	-0.015106	0.04364	0.031433	-0.00351	-0.000916
